# Blender v2.79 (sub 0) OBJ File: 'human.blend'
# www.blender.org
v 0.874667 0.349187 -0.874667
v 0.874667 0.349187 0.874667
v -0.874667 0.349187 0.874666
v -0.874666 0.349187 -0.874667
v 1.000000 0.567059 -0.999999
v 0.999999 0.567059 1.000001
v -1.000000 0.567059 1.000000
v -1.000000 0.567059 -1.000000
v 1.000000 0.992623 -0.999999
v 0.999999 0.992623 1.000001
v -1.000000 0.992623 1.000000
v -1.000000 0.992623 -1.000000
v 1.000000 1.255488 -0.999999
v 0.999999 1.255488 1.000001
v -1.000000 1.255488 1.000000
v -1.000000 1.255488 -1.000000
v 1.170948 1.368625 -1.170946
v 1.170946 1.368625 1.170948
v -1.170947 1.368625 1.170946
v -1.170947 1.368625 -1.170947
v 1.147607 1.701103 -1.147606
v 1.147606 1.701103 1.147608
v -1.147607 1.701103 1.147606
v -1.147607 1.701103 -1.147607
v 1.147607 2.035645 -1.147606
v 1.147606 2.035645 1.147608
v -1.147607 2.035645 1.147606
v -1.147607 2.035645 -1.147607
v 1.147607 2.438600 -1.147606
v 1.147606 2.438600 1.147608
v -1.147607 2.438600 1.147606
v -1.147607 2.438600 -1.147607
v 1.147607 2.784647 -1.147606
v 1.147606 2.784647 1.147608
v -1.147607 2.784647 1.147606
v -1.147607 2.784647 -1.147607
v 1.032076 3.053659 -1.032075
v 1.032075 3.053659 1.032076
v -1.032076 3.053659 1.032075
v -1.032075 3.053659 -1.032075
v 0.942171 3.372925 -0.942170
v 0.942170 3.372925 0.942171
v -0.942170 3.372925 0.942170
v -0.942170 3.372925 -0.942170
v 0.597389 3.644966 -0.597389
v 0.597389 3.644966 0.597390
v -0.597389 3.644966 0.597389
v -0.597389 3.644966 -0.597389
v 0.597389 3.854963 -0.597389
v 0.597389 3.854963 0.597390
v -0.597389 3.854963 0.597389
v -0.597389 3.854963 -0.597389
v 0.597389 4.114809 -0.597389
v 0.597389 4.114809 0.597390
v -0.597389 4.114809 0.597389
v -0.597389 4.114809 -0.597389
v 0.874667 -0.061273 -0.874667
v 0.874667 -0.061273 0.874667
v -0.874667 -0.061273 0.874666
v -0.874666 -0.061273 -0.874667
v 0.597389 4.389238 -0.597389
v 0.597389 4.389238 0.597390
v -0.597389 4.389238 0.597389
v -0.597389 4.389238 -0.597389
v 0.532454 4.682318 -0.532454
v 0.532454 4.682318 0.532455
v -0.532454 4.682318 0.532454
v -0.532454 4.682318 -0.532454
vt 0.364352 0.610406
vt 0.420735 0.832443
vt 0.364352 0.832443
vt 0.875916 0.848351
vt 0.817459 0.594498
vt 0.875916 0.594498
vt 0.334993 0.848351
vt 0.905275 0.610406
vt 0.905275 0.832443
vt 0.695609 0.848351
vt 0.724968 0.610406
vt 0.724968 0.832443
vt 0.544660 0.610406
vt 0.515301 0.848351
vt 0.515301 0.594498
vt 0.637151 0.848351
vt 0.601043 0.594498
vt 0.637151 0.594498
vt 0.276536 0.594498
vt 0.334993 0.594498
vt 0.695609 0.594498
vt 0.456843 0.594498
vt 0.023495 0.275551
vt 0.000000 0.000000
vt 0.023495 0.021698
vt 0.456844 0.848351
vt 0.420735 0.594498
vt 0.817459 0.848351
vt 0.781350 0.594498
vt 0.276536 0.848351
vt 0.240428 0.594498
vt 0.552716 0.297249
vt 0.598493 0.591535
vt 0.552716 0.594497
vt 0.298374 0.275551
vt 0.321869 0.000000
vt 0.321869 0.297249
vt 0.298374 0.021698
vt 0.000000 0.297249
vt 0.552450 0.294286
vt 0.506496 0.002963
vt 0.552450 0.002962
vt 0.506940 0.591535
vt 0.506940 0.300211
vt 0.598227 0.297249
vt 0.598227 0.000000
vt 0.045777 0.591535
vt 0.000000 0.594498
vt 0.644447 0.300211
vt 0.699799 0.591535
vt 0.644447 0.591535
vt 0.045777 0.300211
vt 0.091731 0.591535
vt 0.598493 0.300211
vt 0.460985 0.300211
vt 0.699799 0.300211
vt 0.747333 0.591535
vt 0.460985 0.591535
vt 0.405634 0.300211
vt 0.506496 0.294286
vt 0.451144 0.002963
vt 0.091731 0.300211
vt 0.147083 0.591535
vt 0.403610 0.294286
vt 0.366133 0.017627
vt 0.403610 0.002963
vt 0.405634 0.591535
vt 0.358099 0.300211
vt 0.451144 0.294286
vt 0.147083 0.300211
vt 0.194617 0.591535
vt 0.784810 0.314875
vt 0.829074 0.565460
vt 0.784810 0.576871
vt 0.194617 0.300211
vt 0.232094 0.576871
vt 0.747333 0.300211
vt 0.358099 0.591535
vt 0.320622 0.314875
vt 0.857210 0.000000
vt 0.645614 0.043762
vt 0.598227 0.000000
vt 0.320622 0.576871
vt 0.276358 0.326287
vt 0.366133 0.279622
vt 0.321869 0.029038
vt 0.232094 0.314875
vt 0.276358 0.565460
vt 1.000000 0.151649
vt 0.971154 0.000000
vt 1.000000 0.000000
vt 0.598227 0.239173
vt 0.809823 0.195411
vt 0.857210 0.239173
vt 0.809823 0.043762
vt 0.645614 0.195411
vt 0.354372 1.000000
vt 0.318678 0.848351
vt 0.354372 0.848351
vt 0.142790 0.968184
vt 0.113944 0.816535
vt 0.142790 0.816535
vt 0.383218 1.000000
vt 0.383218 0.848351
vt 0.971864 0.448898
vt 0.943018 0.297249
vt 0.971864 0.297249
vt 0.935460 0.151649
vt 0.897763 0.000000
vt 0.935460 0.000000
vt 0.943018 0.448898
vt 0.907325 0.297249
vt 0.971154 0.151649
vt 0.113944 0.968184
vt 0.078250 0.816535
vt 0.000000 0.816535
vt 0.240428 0.594498
vt 0.240428 0.816534
vt 0.781350 0.832443
vt 0.961658 0.832443
vt 0.601043 0.832443
vt 0.544660 0.832443
vt 0.280981 1.000000
vt 0.240428 0.856593
vt 0.280981 0.848351
vt 0.078250 0.968184
vt 0.040553 0.816535
vt 0.318678 1.000000
vt 0.907325 0.448898
vt 0.869628 0.297249
vt 0.975435 0.584063
vt 0.829074 0.448898
vt 0.975435 0.448898
vt 0.869628 0.448898
vt 0.829074 0.305491
vt 0.897763 0.151649
vt 0.857210 0.008242
vt 0.040554 0.968184
vt 0.000000 0.824777
vt 0.420735 0.610406
vt 0.601043 0.848351
vt 0.420735 0.848351
vt 0.781350 0.848351
vt 0.240428 0.848351
vt 0.552716 0.594498
vt 0.829074 0.326287
vt 0.321869 0.268211
vt 0.276358 0.326287
vt 0.000000 0.594498
vt 0.781350 0.610406
vt 0.961658 0.610406
vt 0.601043 0.610406
vt 0.240428 0.991758
vt 0.829074 0.584063
vt 0.829074 0.440656
vt 0.857210 0.143407
vt 0.000000 0.959942
vn 1.0000 0.0000 0.0000
vn -0.0000 0.0000 1.0000
vn 0.8668 -0.4986 0.0000
vn -0.0000 -0.4986 0.8668
vn -0.8668 -0.4986 -0.0000
vn 0.0000 -0.4986 -0.8668
vn -1.0000 0.0000 -0.0000
vn 0.0000 0.0000 -1.0000
vn 0.0000 -0.8339 -0.5519
vn -0.0000 0.0700 0.9975
vn -0.0000 -0.8339 0.5519
vn 0.5519 -0.8339 0.0000
vn -0.5519 -0.8339 -0.0000
vn 0.9975 0.0700 0.0000
vn -0.9975 0.0700 -0.0000
vn 0.0000 0.0700 -0.9975
vn -0.9188 0.3946 -0.0000
vn -0.0000 0.2711 0.9626
vn 0.0000 0.3946 -0.9188
vn -0.0000 0.3946 0.9188
vn 0.9188 0.3946 0.0000
vn 0.6194 0.7851 0.0000
vn 0.9626 0.2711 0.0000
vn -0.9626 0.2711 -0.0000
vn 0.0000 0.2711 -0.9626
vn -0.6194 0.7851 -0.0000
vn 0.0000 0.7851 -0.6194
vn -0.0000 0.7851 0.6194
vn 0.0000 -1.0000 0.0000
vn -0.0000 0.2163 0.9763
vn 0.0000 1.0000 -0.0000
vn 0.9763 0.2163 0.0000
vn -0.9763 0.2163 -0.0000
vn 0.0000 0.2163 -0.9763
s off
f 2/1/1 57/2/1 1/3/1
f 6/4/2 11/5/2 7/6/2
f 5/7/3 2/1/3 1/3/3
f 6/4/4 3/8/4 2/9/4
f 7/10/5 4/11/5 3/12/5
f 1/13/6 8/14/6 5/15/6
f 11/16/7 16/17/7 12/18/7
f 5/7/1 10/19/1 6/20/1
f 7/10/7 12/18/7 8/21/7
f 8/14/8 9/22/8 5/15/8
f 16/23/9 17/24/9 13/25/9
f 12/26/8 13/27/8 9/22/8
f 10/28/2 15/29/2 11/5/2
f 9/30/1 14/31/1 10/19/1
f 18/32/10 23/33/10 19/34/10
f 15/35/11 18/36/11 19/37/11
f 13/25/12 18/36/12 14/38/12
f 15/35/13 20/39/13 16/23/13
f 23/40/7 28/41/7 24/42/7
f 18/32/14 21/43/14 22/44/14
f 19/45/15 24/42/15 20/46/15
f 20/39/16 21/47/16 17/48/16
f 26/49/2 31/50/2 27/51/2
f 24/52/8 25/53/8 21/47/8
f 22/54/2 27/51/2 23/33/2
f 21/43/1 26/55/1 22/44/1
f 30/56/2 35/57/2 31/50/2
f 25/58/1 30/59/1 26/55/1
f 27/60/7 32/61/7 28/41/7
f 28/62/8 29/63/8 25/53/8
f 35/64/17 40/65/17 36/66/17
f 29/67/1 34/68/1 30/59/1
f 31/69/7 36/66/7 32/61/7
f 32/70/8 33/71/8 29/63/8
f 38/72/18 43/73/18 39/74/18
f 36/75/19 37/76/19 33/71/19
f 34/77/20 39/74/20 35/57/20
f 33/78/21 38/79/21 34/68/21
f 41/80/22 46/81/22 42/82/22
f 37/83/23 42/84/23 38/79/23
f 39/85/24 44/86/24 40/65/24
f 40/87/25 41/88/25 37/76/25
f 47/89/7 52/90/7 48/91/7
f 43/92/26 48/93/26 44/94/26
f 44/94/27 45/95/27 41/80/27
f 43/92/28 46/81/28 47/96/28
f 50/97/2 55/98/2 51/99/2
f 48/100/8 49/101/8 45/102/8
f 46/103/2 51/99/2 47/104/2
f 45/105/1 50/106/1 46/107/1
f 55/108/7 64/109/7 56/110/7
f 49/111/1 54/112/1 50/106/1
f 51/113/7 56/110/7 52/90/7
f 52/114/8 53/115/8 49/101/8
f 58/116/29 60/117/29 57/118/29
f 4/11/7 59/119/7 3/12/7
f 3/8/2 58/120/2 2/9/2
f 1/13/8 60/121/8 4/122/8
f 62/123/30 67/124/30 63/125/30
f 56/126/8 61/127/8 53/115/8
f 54/128/2 63/125/2 55/98/2
f 53/129/1 62/130/1 54/112/1
f 68/131/31 66/132/31 65/133/31
f 61/134/32 66/135/32 62/130/32
f 63/136/33 68/137/33 64/109/33
f 64/138/34 65/139/34 61/127/34
f 2/1/1 58/140/1 57/2/1
f 6/4/2 10/28/2 11/5/2
f 5/7/3 6/20/3 2/1/3
f 6/4/4 7/6/4 3/8/4
f 7/10/5 8/21/5 4/11/5
f 1/13/6 4/122/6 8/14/6
f 11/16/7 15/141/7 16/17/7
f 5/7/1 9/30/1 10/19/1
f 7/10/7 11/16/7 12/18/7
f 8/14/8 12/26/8 9/22/8
f 16/23/9 20/39/9 17/24/9
f 12/26/8 16/142/8 13/27/8
f 10/28/2 14/143/2 15/29/2
f 9/30/1 13/144/1 14/31/1
f 18/32/10 22/54/10 23/33/10
f 15/35/11 14/38/11 18/36/11
f 13/25/12 17/24/12 18/36/12
f 15/35/13 19/37/13 20/39/13
f 23/40/7 27/60/7 28/41/7
f 18/32/14 17/145/14 21/43/14
f 19/45/15 23/40/15 24/42/15
f 20/39/16 24/52/16 21/47/16
f 26/49/2 30/56/2 31/50/2
f 24/52/8 28/62/8 25/53/8
f 22/54/2 26/49/2 27/51/2
f 21/43/1 25/58/1 26/55/1
f 30/56/2 34/77/2 35/57/2
f 25/58/1 29/67/1 30/59/1
f 27/60/7 31/69/7 32/61/7
f 28/62/8 32/70/8 29/63/8
f 35/64/17 39/85/17 40/65/17
f 29/67/1 33/78/1 34/68/1
f 31/69/7 35/64/7 36/66/7
f 32/70/8 36/75/8 33/71/8
f 38/72/18 42/146/18 43/73/18
f 36/75/19 40/87/19 37/76/19
f 34/77/20 38/72/20 39/74/20
f 33/78/21 37/83/21 38/79/21
f 41/80/22 45/95/22 46/81/22
f 37/83/23 41/88/23 42/84/23
f 39/85/24 43/147/24 44/86/24
f 40/87/25 44/148/25 41/88/25
f 47/89/7 51/113/7 52/90/7
f 43/92/26 47/96/26 48/93/26
f 44/94/27 48/93/27 45/95/27
f 43/92/28 42/82/28 46/81/28
f 50/97/2 54/128/2 55/98/2
f 48/100/8 52/114/8 49/101/8
f 46/103/2 50/97/2 51/99/2
f 45/105/1 49/111/1 50/106/1
f 55/108/7 63/136/7 64/109/7
f 49/111/1 53/129/1 54/112/1
f 51/113/7 55/108/7 56/110/7
f 52/114/8 56/126/8 53/115/8
f 58/116/29 59/149/29 60/117/29
f 4/11/7 60/150/7 59/119/7
f 3/8/2 59/151/2 58/120/2
f 1/13/8 57/152/8 60/121/8
f 62/123/30 66/153/30 67/124/30
f 56/126/8 64/138/8 61/127/8
f 54/128/2 62/123/2 63/125/2
f 53/129/1 61/134/1 62/130/1
f 68/131/31 67/154/31 66/132/31
f 61/134/32 65/155/32 66/135/32
f 63/136/33 67/156/33 68/137/33
f 64/138/34 68/157/34 65/139/34
