# Blender v2.79 (sub 0) OBJ File: 'human2.0.blend'
# www.blender.org
v 0.733522 0.042570 -0.733522
v 0.733522 0.042570 0.733522
v -0.733522 0.042570 0.733522
v -0.733522 0.042570 -0.733523
v 0.797714 0.329343 -0.797713
v 0.797713 0.329343 0.797714
v -0.797714 0.329343 0.797713
v -0.797713 0.329343 -0.797714
v 0.926073 1.362334 -0.926072
v 0.926072 1.362334 0.926073
v -0.926073 1.362334 0.926072
v -0.926072 1.362334 -0.926072
v 1.160907 1.701072 -1.160906
v 1.160905 1.701072 1.160907
v -1.160906 1.701072 1.160906
v -1.160906 1.701072 -1.160906
v 0.998278 3.810711 -0.998277
v 0.998277 3.810711 0.998278
v -0.998278 3.810711 0.998277
v -0.998277 3.810711 -0.998278
v 0.633909 4.275524 -0.633909
v 0.633909 4.275524 0.633910
v -0.633909 4.275524 0.633909
v -0.633909 4.275524 -0.633909
v 0.500026 5.254494 -0.500025
v 0.500025 5.254494 0.500026
v -0.500026 5.254494 0.500026
v -0.500026 5.254494 -0.500026
vt 0.500000 0.777391
vt 0.657963 1.000000
vt 0.500000 1.000000
vt 0.710893 0.732925
vt 0.525286 0.575011
vt 0.724714 0.575011
vt 0.960893 0.044467
vt 0.796018 0.000000
vt 0.953982 0.000000
vt 0.289107 0.745463
vt 0.453982 0.789273
vt 0.296018 0.789273
vt 0.539107 0.732925
vt 0.703982 0.777391
vt 0.546018 0.777391
vt 0.203982 0.789274
vt 0.039107 0.745464
vt 0.210893 0.745464
vt 0.750000 0.518993
vt 0.224714 0.588165
vt 0.474714 0.588165
vt 0.460893 0.745463
vt 0.775286 0.202380
vt 0.789107 0.044467
vt 0.250000 0.535628
vt 0.482489 0.216490
vt 0.500000 0.535628
vt 0.000000 0.535628
vt 0.250000 0.535628
vt 0.275286 0.588165
vt 0.974714 0.202380
vt 0.750000 0.258398
vt 0.982489 0.571567
vt 0.806744 0.633349
vt 0.767511 0.571567
vt 1.000000 0.258398
vt 0.500000 0.518994
vt 0.732489 0.205824
vt 0.232489 0.216490
vt 0.556744 0.144042
vt 0.678840 0.000000
vt 0.693256 0.144042
vt 0.517511 0.205824
vt 0.017511 0.216490
vt 0.193256 0.147805
vt 0.267511 0.216490
vt 0.443256 0.147805
vt 0.107680 0.941021
vt 0.000000 0.789274
vt 0.107680 0.789274
vt 0.056744 0.147805
vt 0.178840 0.000000
vt 0.306744 0.147805
vt 0.428840 0.000000
vt 0.943256 0.633349
vt 0.821160 0.777391
vt 0.657963 0.777391
vt 0.046018 0.789274
vt 0.025286 0.588165
vt 0.571160 0.000000
vt 0.000000 0.941021
vt 0.071160 0.000000
vt 0.321160 0.000000
vt 0.928840 0.777391
vn 0.0000 -1.0000 0.0000
vn -0.9924 -0.1233 -0.0000
vn 0.9759 -0.2184 0.0000
vn -0.0000 -0.2184 0.9759
vn -0.9759 -0.2184 -0.0000
vn 0.0000 -0.2184 -0.9759
vn -0.8218 -0.5697 -0.0000
vn 0.0000 -0.1233 -0.9924
vn -0.0000 -0.1233 0.9924
vn 0.9924 -0.1233 0.0000
vn -0.0000 0.0769 0.9970
vn 0.0000 -0.5697 -0.8218
vn -0.0000 -0.5697 0.8218
vn 0.8218 -0.5697 0.0000
vn 0.7870 0.6169 0.0000
vn 0.9970 0.0769 0.0000
vn -0.9970 0.0769 -0.0000
vn 0.0000 0.0769 -0.9970
vn -0.9908 0.1355 -0.0000
vn -0.7870 0.6169 -0.0000
vn 0.0000 0.6169 -0.7870
vn -0.0000 0.6169 0.7870
vn 0.0000 1.0000 0.0000
vn 0.0000 0.1355 -0.9908
vn -0.0000 0.1355 0.9908
vn 0.9908 0.1355 0.0000
s off
f 2/1/1 4/2/1 1/3/1
f 8/4/2 11/5/2 12/6/2
f 5/7/3 2/8/3 1/9/3
f 6/10/4 3/11/4 2/12/4
f 7/13/5 4/14/5 3/15/5
f 1/16/6 8/17/6 5/18/6
f 11/5/7 16/19/7 12/6/7
f 8/17/8 9/20/8 5/18/8
f 6/10/9 11/21/9 7/22/9
f 5/7/10 10/23/10 6/24/10
f 14/25/11 19/26/11 15/27/11
f 9/20/12 16/28/12 13/29/12
f 10/30/13 15/27/13 11/21/13
f 9/31/14 14/32/14 10/23/14
f 17/33/15 22/34/15 18/35/15
f 13/36/16 18/35/16 14/32/16
f 15/37/17 20/38/17 16/19/17
f 16/28/18 17/39/18 13/29/18
f 23/40/19 28/41/19 24/42/19
f 19/43/20 24/42/20 20/38/20
f 20/44/21 21/45/21 17/39/21
f 18/46/22 23/47/22 19/26/22
f 28/48/23 26/49/23 25/50/23
f 24/51/24 25/52/24 21/45/24
f 22/53/25 27/54/25 23/47/25
f 21/55/26 26/56/26 22/34/26
f 2/1/1 3/57/1 4/2/1
f 8/4/2 7/13/2 11/5/2
f 5/7/3 6/24/3 2/8/3
f 6/10/4 7/22/4 3/11/4
f 7/13/5 8/4/5 4/14/5
f 1/16/6 4/58/6 8/17/6
f 11/5/7 15/37/7 16/19/7
f 8/17/8 12/59/8 9/20/8
f 6/10/9 10/30/9 11/21/9
f 5/7/10 9/31/10 10/23/10
f 14/25/11 18/46/11 19/26/11
f 9/20/12 12/59/12 16/28/12
f 10/30/13 14/25/13 15/27/13
f 9/31/14 13/36/14 14/32/14
f 17/33/15 21/55/15 22/34/15
f 13/36/16 17/33/16 18/35/16
f 15/37/17 19/43/17 20/38/17
f 16/28/18 20/44/18 17/39/18
f 23/40/19 27/60/19 28/41/19
f 19/43/20 23/40/20 24/42/20
f 20/44/21 24/51/21 21/45/21
f 18/46/22 22/53/22 23/47/22
f 28/48/23 27/61/23 26/49/23
f 24/51/24 28/62/24 25/52/24
f 22/53/25 26/63/25 27/54/25
f 21/55/26 25/64/26 26/56/26
