# Blender v2.79 (sub 0) OBJ File: 'simcoin_miner.blend'
# www.blender.org
v -0.900000 0.200000 1.000000
v -0.900000 3.800000 1.000000
v -0.900000 0.200000 -1.000000
v -0.900000 3.800000 -1.000000
v 0.900000 0.200000 1.000000
v 0.900000 3.800000 1.000000
v 1.000000 0.200000 -0.900000
v 1.000000 3.800000 -0.900000
v -1.000000 0.200000 0.900000
v -1.000000 3.800000 0.900000
v 1.000000 3.800000 0.900000
v 1.000000 0.200000 0.900000
v 0.900000 3.800000 -1.000000
v 0.900000 0.200000 -1.000000
v 1.000000 0.000000 1.000000
v 1.000000 4.000000 1.000000
v -1.000000 3.800000 -0.900000
v -1.000000 0.200000 -0.900000
v 1.000000 0.000000 -1.000000
v 1.000000 4.000000 -1.000000
v -1.000000 0.000000 -1.000000
v -1.000000 0.000000 1.000000
v -1.000000 4.000000 1.000000
v -1.000000 4.000000 -1.000000
v -0.900000 0.200000 -0.900000
v -0.900000 0.200000 0.900000
v -0.900000 3.800000 0.900000
v -0.900000 3.800000 -0.900000
v 0.900000 3.800000 0.900000
v 0.900000 0.200000 0.900000
v 0.900000 3.800000 -0.900000
v 0.900000 0.200000 -0.900000
v -0.900000 0.350000 0.900000
v -0.900000 1.350000 0.900000
v -0.900000 0.350000 -0.900000
v -0.900000 1.350000 -0.900000
v 0.900000 0.350000 0.900000
v 0.900000 1.350000 0.900000
v 0.900000 0.350000 -0.900000
v 0.900000 1.350000 -0.900000
v -0.900000 1.500000 0.900000
v -0.900000 2.500000 0.900000
v -0.900000 1.500000 -0.900000
v -0.900000 2.500000 -0.900000
v 0.900000 1.500000 0.900000
v 0.900000 2.500000 0.900000
v 0.900000 1.500000 -0.900000
v 0.900000 2.500000 -0.900000
v -0.900000 2.650000 0.900000
v -0.900000 3.650000 0.900000
v -0.900000 2.650000 -0.900000
v -0.900000 3.650000 -0.900000
v 0.900000 2.650000 0.900000
v 0.900000 3.650000 0.900000
v 0.900000 2.650000 -0.900000
v 0.900000 3.650000 -0.900000
vt 1.000000 0.000000
vt 0.000000 1.000000
vt 0.000000 0.000000
vt 1.000000 0.000000
vt 0.000000 1.000000
vt 0.000000 0.000000
vt 1.000000 0.000000
vt 0.000000 0.000000
vt 1.000000 0.000000
vt 0.000000 1.000000
vt 0.000000 0.000000
vt 1.000000 0.000000
vt 0.000000 1.000000
vt 0.000000 0.000000
vt 1.000000 0.000000
vt 0.000000 1.000000
vt 0.000000 0.000000
vt 1.000000 0.000000
vt 0.000000 0.000000
vt 1.000000 0.000000
vt 0.000000 0.000000
vt 1.000000 0.000000
vt 0.000000 1.000000
vt 0.000000 0.000000
vt 1.000000 0.000000
vt 0.000000 1.000000
vt 0.000000 0.000000
vt 0.000000 1.000000
vt 1.000000 0.000000
vt 0.000000 1.000000
vt 0.000000 0.000000
vt 1.000000 0.000000
vt 0.000000 0.000000
vt 1.000000 0.000000
vt 0.000000 1.000000
vt 0.000000 0.000000
vt 0.000000 1.000000
vt 0.000000 0.000000
vt 1.000000 0.000000
vt 1.000000 0.000000
vt 0.000000 0.000000
vt 1.000000 0.000000
vt 0.000000 0.000000
vt 1.000000 0.000000
vt 1.000000 0.000000
vt 0.000000 0.000000
vt 0.000000 0.000000
vt 0.000000 1.000000
vt 0.000000 1.000000
vt 0.000000 1.000000
vt 0.000000 1.000000
vt 1.000000 0.000000
vt 0.000000 1.000000
vt 0.000000 1.000000
vt 1.000000 0.000000
vt 0.000000 0.000000
vt 0.000000 0.000000
vt 1.000000 0.000000
vt 0.000000 1.000000
vt 0.000000 0.000000
vt 1.000000 0.000000
vt 0.000000 1.000000
vt 0.000000 0.000000
vt 1.000000 0.000000
vt 0.000000 1.000000
vt 0.000000 0.000000
vt 1.000000 0.000000
vt 0.000000 1.000000
vt 0.000000 0.000000
vt 1.000000 0.000000
vt 0.000000 1.000000
vt 0.000000 0.000000
vt 1.000000 0.000000
vt 0.000000 1.000000
vt 0.000000 0.000000
vt 1.000000 0.000000
vt 0.000000 1.000000
vt 0.000000 0.000000
vt 1.000000 0.000000
vt 0.000000 1.000000
vt 0.000000 0.000000
vt 1.000000 0.000000
vt 0.000000 1.000000
vt 0.000000 0.000000
vt 1.000000 0.000000
vt 0.000000 1.000000
vt 0.000000 0.000000
vt 1.000000 0.000000
vt 0.000000 1.000000
vt 0.000000 0.000000
vt 1.000000 0.000000
vt 0.000000 1.000000
vt 0.000000 0.000000
vt 1.000000 0.000000
vt 0.000000 1.000000
vt 0.000000 0.000000
vt 1.000000 0.000000
vt 0.000000 1.000000
vt 0.000000 0.000000
vt 1.000000 0.000000
vt 0.000000 1.000000
vt 0.000000 0.000000
vt 1.000000 1.000000
vt 1.000000 1.000000
vt 1.000000 1.000000
vt 1.000000 1.000000
vt 1.000000 1.000000
vt 1.000000 1.000000
vt 1.000000 1.000000
vt 1.000000 1.000000
vt 1.000000 1.000000
vt 1.000000 1.000000
vt 1.000000 1.000000
vt 1.000000 1.000000
vt 1.000000 1.000000
vt 1.000000 1.000000
vt 1.000000 1.000000
vt 1.000000 1.000000
vt 1.000000 1.000000
vt 1.000000 1.000000
vt 1.000000 1.000000
vt 1.000000 1.000000
vt 1.000000 1.000000
vt 1.000000 1.000000
vt 1.000000 1.000000
vt 1.000000 1.000000
vt 1.000000 1.000000
vt 1.000000 1.000000
vt 1.000000 1.000000
vt 1.000000 1.000000
vt 1.000000 1.000000
vt 1.000000 1.000000
vt 1.000000 1.000000
vn 0.0000 -1.0000 0.0000
vn -1.0000 0.0000 0.0000
vn 0.0000 1.0000 0.0000
vn 0.0000 0.0000 1.0000
vn 1.0000 0.0000 0.0000
vn 0.0000 0.0000 -1.0000
s off
f 17/1/1 27/2/1 10/3/1
f 14/4/2 31/5/2 13/6/2
f 11/7/1 31/5/1 8/8/1
f 7/9/3 30/10/3 12/11/3
f 19/12/1 22/13/1 21/14/1
f 24/15/3 16/16/3 20/17/3
f 2/18/4 22/13/4 1/19/4
f 5/20/4 16/16/4 6/21/4
f 1/22/4 15/23/4 5/24/4
f 6/25/4 23/26/4 2/27/4
f 7/9/5 20/28/5 8/8/5
f 12/29/5 19/30/5 7/31/5
f 8/32/5 16/16/5 11/33/5
f 11/7/5 15/23/5 12/11/5
f 3/34/6 24/35/6 4/36/6
f 14/4/6 21/37/6 3/38/6
f 4/39/6 20/28/6 13/6/6
f 13/40/6 19/30/6 14/41/6
f 18/42/2 22/13/2 9/43/2
f 9/44/2 23/26/2 10/3/2
f 10/45/2 24/35/2 17/46/2
f 17/1/2 21/37/2 18/47/2
f 5/20/3 26/48/3 1/19/3
f 18/42/4 28/49/4 17/46/4
f 10/45/6 26/48/6 9/43/6
f 1/22/5 27/2/5 2/27/5
f 2/18/1 29/50/1 6/21/1
f 6/25/2 30/10/2 5/24/2
f 8/32/4 32/51/4 7/31/4
f 12/29/6 29/50/6 11/33/6
f 26/52/3 18/53/3 9/43/3
f 13/40/1 28/49/1 4/36/1
f 4/39/5 25/54/5 3/38/5
f 28/55/1 29/50/1 27/56/1
f 3/34/3 32/51/3 14/41/3
f 26/52/3 32/51/3 25/57/3
f 34/58/2 35/59/2 33/60/2
f 36/61/6 39/62/6 35/63/6
f 40/64/5 37/65/5 39/66/5
f 38/67/4 33/68/4 37/69/4
f 39/70/1 33/68/1 35/63/1
f 36/61/3 38/71/3 40/72/3
f 42/73/2 43/74/2 41/75/2
f 44/76/6 47/77/6 43/78/6
f 48/79/5 45/80/5 47/81/5
f 46/82/4 41/83/4 45/84/4
f 47/85/1 41/83/1 43/78/1
f 44/76/3 46/86/3 48/87/3
f 50/88/2 51/89/2 49/90/2
f 52/91/6 55/92/6 51/93/6
f 56/94/5 53/95/5 55/96/5
f 54/97/4 49/98/4 53/99/4
f 55/100/1 49/98/1 51/93/1
f 52/91/3 54/101/3 56/102/3
f 17/1/1 28/103/1 27/2/1
f 14/4/2 32/104/2 31/5/2
f 11/7/1 29/105/1 31/5/1
f 7/9/3 32/104/3 30/10/3
f 19/12/1 15/106/1 22/13/1
f 24/15/3 23/107/3 16/16/3
f 2/18/4 23/107/4 22/13/4
f 5/20/4 15/106/4 16/16/4
f 1/22/4 22/108/4 15/23/4
f 6/25/4 16/109/4 23/26/4
f 7/9/5 19/110/5 20/28/5
f 12/29/5 15/106/5 19/30/5
f 8/32/5 20/111/5 16/16/5
f 11/7/5 16/109/5 15/23/5
f 3/34/6 21/112/6 24/35/6
f 14/4/6 19/110/6 21/37/6
f 4/39/6 24/113/6 20/28/6
f 13/40/6 20/111/6 19/30/6
f 18/42/2 21/112/2 22/13/2
f 9/44/2 22/108/2 23/26/2
f 10/45/2 23/107/2 24/35/2
f 17/1/2 24/113/2 21/37/2
f 5/20/3 30/114/3 26/48/3
f 18/42/4 25/115/4 28/49/4
f 10/45/6 27/116/6 26/48/6
f 1/22/5 26/117/5 27/2/5
f 2/18/1 27/116/1 29/50/1
f 6/25/2 29/105/2 30/10/2
f 8/32/4 31/118/4 32/51/4
f 12/29/6 30/114/6 29/50/6
f 26/52/3 25/115/3 18/53/3
f 13/40/1 31/118/1 28/49/1
f 4/39/5 28/103/5 25/54/5
f 28/55/1 31/118/1 29/50/1
f 3/34/3 25/115/3 32/51/3
f 26/52/3 30/114/3 32/51/3
f 34/58/2 36/119/2 35/59/2
f 36/61/6 40/120/6 39/62/6
f 40/64/5 38/121/5 37/65/5
f 38/67/4 34/122/4 33/68/4
f 39/70/1 37/123/1 33/68/1
f 36/61/3 34/122/3 38/71/3
f 42/73/2 44/124/2 43/74/2
f 44/76/6 48/125/6 47/77/6
f 48/79/5 46/126/5 45/80/5
f 46/82/4 42/127/4 41/83/4
f 47/85/1 45/128/1 41/83/1
f 44/76/3 42/127/3 46/86/3
f 50/88/2 52/129/2 51/89/2
f 52/91/6 56/130/6 55/92/6
f 56/94/5 54/131/5 53/95/5
f 54/97/4 50/132/4 49/98/4
f 55/100/1 53/133/1 49/98/1
f 52/91/3 50/132/3 54/101/3
