# Blender v2.78 (sub 0) OBJ File: 'solarPanel2.0.blend'
# www.blender.org
mtllib solarPanel2.1.mtl
o Cylinder
v 0.000000 0.021801 -0.300819
v 0.000000 1.883581 -0.161109
v 0.115118 0.021801 -0.277920
v 0.076214 1.872861 -0.150389
v 0.212711 0.021801 -0.212711
v 0.140825 1.842334 -0.119862
v 0.277920 0.021801 -0.115118
v 0.183997 1.796647 -0.074175
v 0.300819 0.021801 0.000000
v 0.199157 1.742755 -0.020284
v 0.277920 0.021801 0.115118
v 0.183997 1.688864 0.033608
v 0.212711 0.021801 0.212711
v 0.140825 1.643177 0.079295
v 0.115118 0.021801 0.277920
v 0.076214 1.612650 0.109822
v 0.000000 0.021801 0.300819
v 0.000000 1.601930 0.120541
v -0.115118 0.021801 0.277921
v -0.076214 1.612650 0.109822
v -0.212711 0.021801 0.212711
v -0.140825 1.643177 0.079295
v -0.277920 0.021801 0.115118
v -0.183997 1.688864 0.033608
v -0.300819 0.021801 -0.000000
v -0.199157 1.742755 -0.020284
v -0.277920 0.021801 -0.115118
v -0.183997 1.796647 -0.074175
v -0.212711 0.021801 -0.212711
v -0.140825 1.842334 -0.119862
v -0.115118 0.021801 -0.277921
v -0.076214 1.872861 -0.150389
v -0.575384 2.807428 -1.084956
v -2.019243 2.808964 -1.086491
v -2.015340 2.149614 -0.427142
v -2.017548 1.742756 -0.020283
v -2.015340 1.335897 0.386575
v -2.016783 0.679579 1.042893
v -0.575385 0.678067 1.044404
v 0.000000 0.679583 1.042889
v 0.575385 0.678067 1.044404
v 2.013021 0.679579 1.042893
v 2.015169 1.335897 0.386575
v 2.017232 1.742756 -0.020283
v 2.015169 2.149614 -0.427142
v 2.013835 2.808964 -1.086491
v 0.575385 2.807428 -1.084956
v -0.000000 2.808982 -1.086511
v -0.575384 2.843583 -1.048800
v -2.019243 2.845119 -1.050336
v -2.015340 2.185770 -0.390987
v -2.017548 1.778911 0.015872
v -2.015340 1.372052 0.422731
v -2.016783 0.715735 1.079049
v -0.575385 0.714222 1.080559
v 0.000000 0.715739 1.079045
v 0.575385 0.714222 1.080559
v 2.013021 0.715735 1.079049
v 2.015169 1.372053 0.422731
v 2.017232 1.778911 0.015872
v 2.015169 2.185770 -0.390987
v 2.013835 2.845119 -1.050336
v 0.575385 2.843583 -1.048800
v -0.000000 2.845137 -1.050356
v -0.000614 1.779479 0.015304
vt 0.1719 0.6702
vt 0.1719 0.9052
vt 0.1596 0.9052
vt 0.1533 0.6729
vt 0.1491 0.9052
vt 0.1375 0.6806
vt 0.0687 0.6702
vt 0.0687 0.9731
vt 0.0610 0.9658
vt 0.0530 0.6708
vt 0.0519 0.9572
vt 0.0344 0.6717
vt 0.0427 0.9488
vt 0.0158 0.6728
vt 0.0349 0.9418
vt 0.0000 0.6738
vt 0.2751 0.6806
vt 0.2635 0.8866
vt 0.2531 0.8794
vt 0.2594 0.6729
vt 0.2407 0.8769
vt 0.2407 0.6702
vt 0.2284 0.8794
vt 0.2221 0.6729
vt 0.2179 0.8866
vt 0.2063 0.6806
vt 0.0687 0.9695
vt 0.1037 0.7016
vt 0.1115 0.6945
vt 0.0846 0.9705
vt 0.1206 0.6861
vt 0.1032 0.9716
vt 0.1298 0.6776
vt 0.1218 0.9725
vt 0.1375 0.6702
vt 0.1375 0.9731
vt 0.2114 0.3353
vt 0.2138 0.3479
vt 0.0000 0.4308
vt 0.0003 0.3353
vt 0.2063 0.6806
vt 0.1947 0.9052
vt 0.1842 0.9052
vt 0.1905 0.6729
vt 0.3433 0.7246
vt 0.3381 0.7432
vt 0.3285 0.7581
vt 0.3160 0.7673
vt 0.3024 0.7692
vt 0.2899 0.7635
vt 0.2803 0.7512
vt 0.2751 0.7341
vt 0.2751 0.7148
vt 0.2803 0.6962
vt 0.2899 0.6812
vt 0.3024 0.6721
vt 0.3160 0.6702
vt 0.3285 0.6759
vt 0.3381 0.6882
vt 0.3433 0.7053
vt 0.2208 0.3587
vt 0.2313 0.3658
vt 0.1505 0.6699
vt 0.0003 0.6695
vt 0.2758 0.3353
vt 0.2734 0.3226
vt 0.4872 0.2397
vt 0.4876 0.3353
vt 0.2559 0.3658
vt 0.2664 0.3587
vt 0.4876 0.6697
vt 0.3367 0.6699
vt 0.2436 0.3683
vt 0.2436 0.6702
vt 0.2138 0.3226
vt 0.0000 0.2397
vt 0.2559 0.3047
vt 0.2436 0.3022
vt 0.2436 0.0003
vt 0.3367 0.0006
vt 0.2664 0.3119
vt 0.4876 0.0000
vt 0.2734 0.3479
vt 0.4872 0.4308
vt 0.2313 0.3047
vt 0.2208 0.3119
vt 0.0004 0.0004
vt 0.1505 0.0006
vt 1.0000 0.5000
vt 1.0000 0.6548
vt 0.9917 0.6548
vt 0.9917 0.5000
vt 0.9917 0.3459
vt 0.9917 0.2504
vt 1.0000 0.2504
vt 1.0000 0.3459
vt 1.0000 0.7504
vt 1.0000 0.8459
vt 0.9917 0.8459
vt 0.9917 0.7504
vt 0.9917 0.1548
vt 0.9917 0.0000
vt 1.0000 0.0000
vt 1.0000 0.1548
vt 0.9752 0.6697
vt 0.9752 0.4308
vt 0.9834 0.4308
vt 0.9834 0.6697
vt 0.9834 0.6691
vt 0.9834 0.4298
vt 0.9917 0.4298
vt 0.9917 0.6691
vt 0.9752 0.2397
vt 0.9752 0.0000
vt 0.9834 0.0000
vt 0.9834 0.2397
vt 0.9834 0.3342
vt 0.9834 0.2387
vt 0.9917 0.2387
vt 0.9917 0.3342
vt 0.9752 0.3353
vt 0.9834 0.3353
vt 1.0000 1.0000
vt 0.9917 1.0000
vt 0.9917 0.5000
vt 1.0000 0.5000
vt 0.9834 0.0000
vt 0.9917 0.0000
vt 0.4879 0.3350
vt 0.4876 0.2394
vt 0.7313 0.3351
vt 0.4876 0.4305
vt 0.9748 0.2394
vt 0.9752 0.3349
vt 0.4879 0.0007
vt 0.9752 0.6702
vt 0.8243 0.6696
vt 0.6381 0.0003
vt 0.7312 0.0000
vt 0.7312 0.6699
vt 0.6381 0.6696
vt 0.8243 0.0003
vt 0.9752 0.0006
vt 0.9748 0.4305
vt 0.4879 0.6698
vn 0.1765 0.0725 -0.9816
vn 0.5165 0.0668 -0.8537
vn 0.8051 0.0591 -0.5902
vn 0.9777 0.0559 -0.2023
vn 0.9691 0.0631 0.2384
vn 0.7826 0.0798 0.6174
vn 0.4921 0.0982 0.8650
vn 0.1660 0.1097 0.9800
vn -0.1660 0.1097 0.9800
vn -0.4921 0.0982 0.8650
vn -0.7826 0.0798 0.6174
vn -0.9691 0.0631 0.2384
vn -0.9777 0.0559 -0.2023
vn -0.8051 0.0591 -0.5902
vn -0.0000 -0.7071 -0.7071
vn -0.5165 0.0668 -0.8537
vn -0.1765 0.0725 -0.9816
vn 0.0000 -1.0000 0.0000
vn -1.0000 -0.0030 0.0030
vn 1.0000 -0.0025 0.0025
vn -1.0000 -0.0027 0.0027
vn 1.0000 0.0010 -0.0010
vn -0.0015 0.7071 -0.7071
vn -0.0015 -0.7071 0.7071
vn 0.0015 0.7071 -0.7071
vn -0.0037 -0.7071 0.7071
vn -0.0038 0.7071 -0.7071
vn -1.0000 0.0027 -0.0027
vn 0.0038 0.7071 -0.7071
vn -1.0000 0.0011 -0.0011
vn 1.0000 -0.0016 0.0016
vn 0.0037 -0.7071 0.7071
vn 1.0000 0.0025 -0.0025
vn 0.0015 -0.7071 0.7071
vn 0.0000 0.7071 0.7071
usemtl None
s off
f 1/1/1 2/2/1 4/3/1 3/4/1
f 3/4/2 4/3/2 6/5/2 5/6/2
f 5/7/3 6/8/3 8/9/3 7/10/3
f 7/10/4 8/9/4 10/11/4 9/12/4
f 9/12/5 10/11/5 12/13/5 11/14/5
f 11/14/6 12/13/6 14/15/6 13/16/6
f 13/17/7 14/18/7 16/19/7 15/20/7
f 15/20/8 16/19/8 18/21/8 17/22/8
f 17/22/9 18/21/9 20/23/9 19/24/9
f 19/24/10 20/23/10 22/25/10 21/26/10
f 21/27/11 22/28/11 24/29/11 23/30/11
f 23/30/12 24/29/12 26/31/12 25/32/12
f 25/32/13 26/31/13 28/33/13 27/34/13
f 27/34/14 28/33/14 30/35/14 29/36/14
f 18/37/15 16/38/15 41/39/15 40/40/15
f 29/41/16 30/42/16 32/43/16 31/44/16
f 31/44/17 32/43/17 2/2/17 1/1/17
f 1/45/18 3/46/18 5/47/18 7/48/18 9/49/18 11/50/18 13/51/18 15/52/18 17/53/18 19/54/18 21/55/18 23/56/18 25/57/18 27/58/18 29/59/18 31/60/18
f 14/61/15 12/62/15 43/63/15 42/64/15
f 16/38/15 14/61/15 42/64/15 41/39/15
f 2/65/15 32/66/15 33/67/15 48/68/15
f 8/69/15 6/70/15 46/71/15 45/72/15
f 12/62/15 10/73/15 44/74/15 43/63/15
f 20/75/15 18/37/15 40/40/15 39/76/15
f 28/77/15 26/78/15 36/79/15 35/80/15
f 32/66/15 30/81/15 34/82/15 33/67/15
f 6/70/15 4/83/15 47/84/15 46/71/15
f 24/85/15 22/86/15 38/87/15 37/88/15
f 26/78/15 24/85/15 37/88/15 36/79/15
f 10/73/15 8/69/15 45/72/15 44/74/15
f 4/83/15 2/65/15 48/68/15 47/84/15
f 22/86/15 20/75/15 39/76/15 38/87/15
f 30/81/15 28/77/15 35/80/15 34/82/15
f 34/89/19 35/90/19 51/91/19 50/92/19
f 43/93/20 44/94/20 60/95/20 59/96/20
f 36/97/21 37/98/21 53/99/21 52/100/21
f 45/101/22 46/102/22 62/103/22 61/104/22
f 46/105/23 47/106/23 63/107/23 62/108/23
f 38/109/24 39/110/24 55/111/24 54/112/24
f 33/113/25 34/114/25 50/115/25 49/116/25
f 40/117/26 41/118/26 57/119/26 56/120/26
f 48/121/27 33/113/27 49/116/27 64/122/27
f 35/90/28 36/97/28 52/100/28 51/91/28
f 47/106/29 48/121/29 64/122/29 63/107/29
f 37/98/30 38/123/30 54/124/30 53/99/30
f 42/125/31 43/93/31 59/96/31 58/126/31
f 39/110/32 40/117/32 56/120/32 55/111/32
f 44/94/33 45/101/33 61/104/33 60/95/33
f 41/118/34 42/127/34 58/128/34 57/119/34
f 56/129/35 57/130/35 65/131/35
f 55/132/35 56/129/35 65/131/35
f 63/133/35 64/134/35 65/131/35
f 57/130/35 58/135/35 65/131/35
f 50/136/35 51/137/35 65/131/35
f 59/138/35 60/139/35 65/131/35
f 52/140/35 53/141/35 65/131/35
f 61/142/35 62/143/35 65/131/35
f 62/143/35 63/133/35 65/131/35
f 58/135/35 59/138/35 65/131/35
f 49/144/35 50/136/35 65/131/35
f 64/134/35 49/144/35 65/131/35
f 60/139/35 61/142/35 65/131/35
f 51/137/35 52/140/35 65/131/35
f 54/145/35 55/132/35 65/131/35
f 53/141/35 54/145/35 65/131/35
