# Blender v2.79 (sub 0) OBJ File: 'tree.blend'
# www.blender.org
v -0.018823 -0.176809 -6.148009
v -0.018823 -0.176809 6.125671
v -0.018823 30.907604 -6.148010
v -0.018824 30.907604 6.125672
v -6.155664 -0.176809 -0.011169
v 6.118017 -0.176809 -0.011169
v -6.155664 30.907604 -0.011168
v 6.118017 30.907604 -0.011168
vt 0.993934 0.002089
vt 0.004493 0.993611
vt 0.004088 0.004896
vt 0.995915 0.000506
vt 0.002308 0.995893
vt 0.001146 0.003522
vt 0.995708 0.995391
vt 0.996319 0.997178
vn -1.0000 -0.0000 -0.0000
vn 0.0000 -0.0000 1.0000
s off
f 2/1/1 3/2/1 1/3/1
f 6/4/2 7/5/2 5/6/2
f 2/1/1 4/7/1 3/2/1
f 6/4/2 8/8/2 7/5/2
