# Blender v2.79 (sub 0) OBJ File: 'windTurbineHead.blend'
# www.blender.org
v 0.000000 4.924056 0.000000
v 0.000000 4.935772 -0.254655
v 0.160882 4.935772 -0.235270
v 0.297271 4.935772 -0.180068
v 0.388404 4.935772 -0.097452
v 0.420405 4.935772 0.000000
v 0.388404 4.935772 0.097452
v 0.297271 4.935772 0.180068
v 0.160882 4.935772 0.235270
v 0.000000 4.935772 0.254655
v -0.160882 4.935772 0.235270
v -0.297271 4.935772 0.180068
v -0.388404 4.935772 0.097452
v -0.420405 4.935772 0.000000
v -0.388404 4.935772 -0.097452
v -0.297271 4.935772 -0.180068
v -0.160882 4.935772 -0.235270
v 0.000000 4.971074 -0.351469
v 0.222046 4.971074 -0.324715
v 0.410287 4.971074 -0.248526
v 0.536066 4.971074 -0.134501
v 0.580234 4.971074 0.000000
v 0.536066 4.971074 0.134501
v 0.410287 4.971074 0.248526
v 0.222046 4.971074 0.324715
v 0.000000 4.971074 0.351469
v -0.222046 4.971074 0.324715
v -0.410287 4.971074 0.248526
v -0.536066 4.971074 0.134501
v -0.580234 4.971074 0.000000
v -0.536066 4.971074 -0.134501
v -0.410287 4.971074 -0.248526
v -0.222046 4.971074 -0.324715
v 0.000000 5.009079 -0.481558
v 0.304232 5.009079 -0.444902
v 0.562147 5.009079 -0.340513
v 0.734481 5.009079 -0.184284
v 0.742316 5.017589 0.000000
v 0.734481 5.009079 0.184284
v 0.562147 5.009079 0.340513
v 0.304232 5.009079 0.444902
v 0.000000 5.009079 0.481558
v -0.304232 5.009079 0.444902
v -0.562147 5.009079 0.340513
v -0.734481 5.009079 0.184285
v -0.794997 5.009079 0.000000
v -0.734481 5.009079 -0.184285
v -0.562147 5.009079 -0.340513
v -0.304232 5.009079 -0.444902
v -0.000000 5.053542 -0.529351
v 0.334426 5.053542 -0.489057
v 0.617938 5.053542 -0.374308
v 0.807375 5.053542 -0.202574
v 0.806299 5.053542 0.000000
v 0.807375 5.053542 0.202574
v 0.617938 5.053542 0.374308
v 0.334426 5.053542 0.489057
v 0.000000 5.053542 0.529351
v -0.334426 5.053542 0.489057
v -0.617938 5.053542 0.374308
v -0.807375 5.053542 0.202574
v -0.873897 5.053542 0.000000
v -0.807375 5.053542 -0.202574
v -0.617938 5.053542 -0.374308
v -0.334425 5.053542 -0.489057
v -0.000000 5.147867 -0.529351
v 0.334426 5.147867 -0.489057
v 0.617938 5.147867 -0.374308
v 0.807375 5.147867 -0.202574
v 0.806299 5.147867 0.000000
v 0.807375 5.147867 0.202574
v 0.617938 5.147867 0.374308
v 0.334426 5.147867 0.489057
v 0.000000 5.147867 0.529351
v -0.334426 5.147867 0.489057
v -0.617938 5.147867 0.374308
v -0.807375 5.147867 0.202574
v -0.873897 5.147867 0.000000
v -0.807375 5.147867 -0.202574
v -0.617938 5.147867 -0.374308
v -0.334425 5.147867 -0.489057
v -0.000000 5.217568 -0.473682
v 0.299256 5.217568 -0.437625
v 0.552953 5.217568 -0.334943
v 0.722467 5.217568 -0.181270
v 0.729312 5.209058 0.000000
v 0.722467 5.217568 0.181270
v 0.552953 5.217568 0.334944
v 0.299256 5.217568 0.437625
v 0.000000 5.217568 0.473682
v -0.299256 5.217568 0.437625
v -0.552952 5.217568 0.334944
v -0.722467 5.217568 0.181270
v -0.781993 5.217568 0.000000
v -0.722467 5.217568 -0.181270
v -0.552952 5.217568 -0.334944
v -0.299255 5.217568 -0.437625
v 0.000000 5.281013 -0.360554
v 0.227786 5.281013 -0.333108
v 0.420893 5.281013 -0.254950
v 0.549923 5.281013 -0.137978
v 0.595233 5.281013 0.000000
v 0.549923 5.281013 0.137978
v 0.420893 5.281013 0.254950
v 0.227786 5.281013 0.333109
v 0.000000 5.281013 0.360554
v -0.227786 5.281013 0.333109
v -0.420893 5.281013 0.254950
v -0.549923 5.281013 0.137978
v -0.595233 5.281013 0.000000
v -0.549923 5.281013 -0.137978
v -0.420893 5.281013 -0.254950
v -0.227785 5.281013 -0.333109
v 0.000000 5.326745 0.000000
vt 0.221040 0.417914
vt 0.130887 0.322866
vt 0.160802 0.257712
vt 0.281281 0.578081
vt 0.345477 0.549002
vt 0.304189 0.638926
vt 0.311197 0.279504
vt 0.327387 0.351338
vt 0.242195 0.618849
vt 0.199888 0.629023
vt 0.242195 0.206771
vt 0.281281 0.228738
vt 0.311197 0.512927
vt 0.130887 0.556290
vt 0.114697 0.484455
vt 0.199888 0.216945
vt 0.327387 0.433306
vt 0.160802 0.607055
vt 0.114697 0.402488
vt 0.096617 0.608850
vt 0.019952 0.543649
vt 0.074272 0.509706
vt 0.137906 0.196760
vt 0.191852 0.140494
vt 0.250243 0.695193
vt 0.250242 0.126452
vt 0.191852 0.709235
vt 0.304188 0.156771
vt 0.137906 0.678915
vt 0.345477 0.226837
vt 0.367822 0.325981
vt 0.367822 0.439110
vt 0.074272 0.396576
vt 0.096617 0.286684
vt 0.334967 0.060083
vt 0.261630 0.012798
vt 0.346280 0.024515
vt 0.422154 0.446925
vt 0.019952 0.388647
vt 0.050568 0.238081
vt 0.391538 0.597491
vt 0.107138 0.114873
vt 0.334968 0.720699
vt 0.181051 0.037781
vt 0.261054 0.797791
vt 0.258405 0.044985
vt 0.181051 0.817031
vt 0.107138 0.775489
vt 0.391538 0.156082
vt 0.050568 0.679490
vt 0.422154 0.291922
vt 1.000000 0.356080
vt 0.960324 0.229306
vt 1.000000 0.229306
vt 0.095839 0.810922
vt 0.408465 0.130041
vt 0.033654 0.705396
vt 0.442119 0.279364
vt 0.000000 0.556074
vt 0.442119 0.449749
vt 0.000000 0.385688
vt 0.033654 0.220179
vt 0.408465 0.615259
vt 0.095839 0.084743
vt 0.346280 0.750694
vt 0.177088 0.000000
vt 0.265031 0.835437
vt 0.177088 0.856587
vt 0.442119 0.300287
vt 0.497316 0.180799
vt 0.467268 0.314372
vt 0.931006 0.693563
vt 0.891331 0.566222
vt 0.931006 0.566222
vt 0.960324 0.104267
vt 1.000000 0.104267
vt 0.521470 0.911441
vt 0.481795 0.856507
vt 0.521470 0.856507
vt 0.960324 0.000000
vt 1.000000 0.000000
vt 0.481795 0.911441
vt 0.442119 0.856507
vt 0.481795 0.856507
vt 0.970682 0.857455
vt 0.931006 0.760998
vt 0.970682 0.760998
vt 0.862013 0.000000
vt 0.901689 0.127341
vt 0.862013 0.127341
vt 0.931006 0.631844
vt 0.970682 0.631844
vt 0.901688 0.279664
vt 0.862013 0.279664
vt 0.931006 0.489656
vt 0.970682 0.489656
vt 0.901689 0.433778
vt 0.862013 0.433778
vt 0.931006 1.000000
vt 0.891331 0.845886
vt 0.931006 0.845885
vt 0.931006 0.356080
vt 0.970682 0.356080
vt 0.901688 0.566222
vt 0.862013 0.566222
vt 0.891331 0.693563
vt 0.776443 0.790331
vt 0.696302 0.736869
vt 0.751519 0.705831
vt 0.931006 0.280902
vt 0.931006 0.418808
vt 0.891331 1.000000
vt 0.862013 0.847123
vt 0.442119 0.470657
vt 0.467268 0.466824
vt 0.931006 0.537323
vt 0.862013 0.710820
vt 0.960324 0.356080
vt 0.931006 0.230505
vt 0.537745 0.771681
vt 0.625381 0.812096
vt 0.618814 0.856507
vt 0.787630 0.106072
vt 0.703900 0.064676
vt 0.706561 0.021246
vt 0.703167 0.843805
vt 0.701017 0.804711
vt 0.625381 0.045664
vt 0.618814 0.000000
vt 0.787629 0.832183
vt 0.537746 0.045570
vt 0.552838 0.086441
vt 0.849676 0.726737
vt 0.831964 0.695973
vt 0.475699 0.151016
vt 0.931006 0.144598
vt 0.751519 0.211258
vt 0.793781 0.303546
vt 0.667700 0.437618
vt 0.636535 0.139010
vt 0.581317 0.170049
vt 0.793781 0.634008
vt 0.539055 0.241871
vt 0.862013 0.562400
vt 0.816653 0.532336
vt 0.516184 0.343543
vt 0.862013 0.409948
vt 0.816653 0.416293
vt 0.539055 0.572334
vt 0.497316 0.614948
vt 0.516184 0.459586
vt 0.831965 0.261824
vt 0.581317 0.664621
vt 0.552838 0.736191
vt 0.776443 0.140581
vt 0.636535 0.722398
vt 0.696302 0.153481
vt 0.481795 0.911441
vt 0.442119 0.911442
vt 0.931006 0.857455
vt 0.901688 0.000000
vt 0.862013 0.985030
vt 0.931007 0.343947
vn 0.0158 -0.9991 -0.0390
vn -0.1187 -0.9486 0.2932
vn 0.0158 -0.9991 0.0390
vn -0.0279 -0.9996 0.0091
vn 0.0279 -0.9996 0.0091
vn -0.0158 -0.9991 0.0390
vn -0.0158 -0.9991 -0.0390
vn 0.0236 -0.9994 -0.0260
vn 0.0055 -0.9989 0.0460
vn -0.0279 -0.9996 -0.0091
vn 0.0055 -0.9989 -0.0460
vn 0.0236 -0.9994 0.0260
vn -0.0236 -0.9994 0.0260
vn -0.0055 -0.9989 -0.0460
vn 0.0279 -0.9996 -0.0091
vn -0.0055 -0.9989 0.0460
vn -0.0236 -0.9994 -0.0260
vn -0.0968 -0.9661 -0.2393
vn 0.1804 -0.9633 -0.1990
vn -0.1804 -0.9633 0.1990
vn 0.2151 -0.9740 -0.0706
vn -0.2151 -0.9740 0.0706
vn 0.2151 -0.9740 0.0706
vn -0.2151 -0.9740 -0.0706
vn 0.1804 -0.9633 0.1990
vn -0.1804 -0.9633 -0.1990
vn 0.1187 -0.9486 0.2932
vn -0.1187 -0.9486 -0.2932
vn 0.0412 -0.9387 0.3423
vn 0.0412 -0.9387 -0.3423
vn -0.0412 -0.9387 -0.3423
vn -0.0412 -0.9387 0.3423
vn 0.1187 -0.9486 -0.2932
vn 0.5212 -0.8534 -0.0028
vn 0.0338 -0.9593 0.2803
vn 0.0338 -0.9593 -0.2803
vn -0.0338 -0.9593 -0.2803
vn -0.0338 -0.9593 0.2803
vn 0.0968 -0.9661 -0.2393
vn -0.0968 -0.9661 0.2393
vn 0.1464 -0.9760 -0.1615
vn -0.1464 -0.9760 0.1615
vn 0.2757 -0.9607 0.0326
vn -0.1740 -0.9831 0.0571
vn 0.1740 -0.9831 0.0571
vn -0.1740 -0.9831 -0.0571
vn 0.1464 -0.9760 0.1615
vn -0.1464 -0.9759 -0.1615
vn 0.0968 -0.9661 0.2393
vn -0.3752 0.0000 0.9270
vn -0.4847 -0.8601 -0.1592
vn 0.3893 -0.8149 0.4294
vn -0.3893 -0.8149 -0.4294
vn 0.2431 -0.7616 0.6007
vn -0.2431 -0.7616 -0.6007
vn 0.0818 -0.7297 0.6789
vn 0.0818 -0.7297 -0.6789
vn -0.0818 -0.7297 -0.6789
vn -0.0818 -0.7297 0.6789
vn 0.2431 -0.7616 -0.6007
vn -0.2431 -0.7616 0.6007
vn 0.3893 -0.8149 -0.4294
vn -0.3893 -0.8149 0.4294
vn 0.4898 -0.8716 0.0194
vn -0.4847 -0.8601 0.1592
vn -0.2826 0.6578 -0.6982
vn 0.6716 0.0000 -0.7409
vn -0.6716 0.0000 0.7409
vn 1.0000 0.0000 0.0053
vn -0.9501 0.0000 0.3120
vn 1.0000 0.0000 -0.0053
vn -0.9501 0.0000 -0.3120
vn 0.6716 0.0000 0.7409
vn -0.6716 0.0000 -0.7409
vn 0.3752 0.0000 0.9270
vn -0.3752 0.0000 -0.9270
vn 0.1196 0.0000 0.9928
vn 0.1196 0.0000 -0.9928
vn -0.1196 0.0000 -0.9928
vn -0.1196 0.0000 0.9928
vn 0.3752 0.0000 -0.9270
vn 0.3199 0.9416 0.1050
vn 0.0937 0.6213 0.7779
vn 0.0937 0.6213 -0.7779
vn -0.0937 0.6213 -0.7779
vn -0.0937 0.6213 0.7779
vn 0.2826 0.6578 -0.6982
vn -0.2826 0.6578 0.6982
vn 0.4644 0.7224 -0.5123
vn -0.4644 0.7224 0.5123
vn 0.6222 0.7828 0.0133
vn -0.5927 0.7815 0.1946
vn 0.6350 0.7725 -0.0034
vn -0.5927 0.7815 -0.1946
vn 0.4644 0.7224 0.5123
vn -0.4644 0.7224 -0.5123
vn 0.2826 0.6578 0.6982
vn -0.0432 0.9933 0.1068
vn -0.3199 0.9416 -0.1050
vn 0.2647 0.9191 0.2920
vn -0.2647 0.9191 -0.2920
vn 0.1712 0.8898 0.4230
vn -0.1712 0.8898 -0.4230
vn 0.0588 0.8707 0.4883
vn 0.0588 0.8707 -0.4883
vn -0.0588 0.8707 -0.4883
vn -0.0588 0.8707 0.4883
vn 0.1712 0.8898 -0.4230
vn -0.1712 0.8898 0.4230
vn 0.2647 0.9191 -0.2920
vn -0.2647 0.9191 0.2920
vn 0.4727 0.8809 0.0235
vn -0.3199 0.9416 0.1050
vn 0.0648 0.9953 -0.0715
vn -0.0648 0.9953 0.0715
vn 0.0766 0.9967 -0.0251
vn -0.0766 0.9967 0.0251
vn 0.0766 0.9967 0.0251
vn -0.0766 0.9967 -0.0251
vn 0.0648 0.9953 0.0715
vn -0.0648 0.9953 -0.0715
vn 0.0432 0.9933 0.1068
vn -0.0432 0.9933 -0.1068
vn 0.0152 0.9919 0.1258
vn 0.0152 0.9919 -0.1258
vn -0.0152 0.9919 -0.1258
vn -0.0152 0.9919 0.1258
vn 0.0432 0.9933 -0.1068
vn 0.4898 -0.8716 -0.0194
vn -0.1464 -0.9759 0.1615
vn 0.1740 -0.9831 -0.0571
vn 0.2757 -0.9607 -0.0326
vn -0.1464 -0.9760 -0.1615
vn 0.5212 -0.8534 0.0028
vn 0.4727 0.8809 -0.0235
vn 0.6350 0.7725 0.0034
vn 0.6222 0.7828 -0.0133
vn 0.3199 0.9416 -0.1050
s off
f 1/1/1 3/2/1 4/3/1
f 12/4/2 27/5/2 28/6/2
f 1/1/3 8/7/3 9/8/3
f 1/1/4 13/9/4 14/10/4
f 1/1/5 6/11/5 7/12/5
f 1/1/6 11/13/6 12/4/6
f 1/1/7 16/14/7 17/15/7
f 1/1/8 4/3/8 5/16/8
f 1/1/9 9/8/9 10/17/9
f 1/1/10 14/10/10 15/18/10
f 1/1/11 2/19/11 3/2/11
f 1/1/12 7/12/12 8/7/12
f 1/1/13 12/4/13 13/9/13
f 1/1/14 17/15/14 2/19/14
f 1/1/15 5/16/15 6/11/15
f 1/1/16 10/17/16 11/13/16
f 1/1/17 15/18/17 16/14/17
f 32/20/18 49/21/18 33/22/18
f 5/16/19 20/23/19 21/24/19
f 13/9/20 28/6/20 29/25/20
f 6/11/21 21/24/21 22/26/21
f 14/10/22 29/25/22 30/27/22
f 6/11/23 23/28/23 7/12/23
f 14/10/24 31/29/24 15/18/24
f 7/12/25 24/30/25 8/7/25
f 15/18/26 32/20/26 16/14/26
f 8/7/27 25/31/27 9/8/27
f 16/14/28 33/22/28 17/15/28
f 9/8/29 26/32/29 10/17/29
f 3/2/30 18/33/30 19/34/30
f 17/15/31 18/33/31 2/19/31
f 11/13/32 26/32/32 27/5/32
f 4/3/33 19/34/33 20/23/33
f 39/35/34 54/36/34 55/37/34
f 25/31/35 42/38/35 26/32/35
f 19/34/36 34/39/36 35/40/36
f 33/22/37 34/39/37 18/33/37
f 27/5/38 42/38/38 43/41/38
f 20/23/39 35/40/39 36/42/39
f 28/6/40 43/41/40 44/43/40
f 21/24/41 36/42/41 37/44/41
f 29/25/42 44/43/42 45/45/42
f 22/26/43 37/44/43 38/46/43
f 30/27/44 45/45/44 46/47/44
f 22/26/45 39/35/45 23/28/45
f 30/27/46 47/48/46 31/29/46
f 23/28/47 40/49/47 24/30/47
f 31/29/48 48/50/48 32/20/48
f 24/30/49 41/51/49 25/31/49
f 59/52/50 76/53/50 60/54/50
f 46/47/51 63/55/51 47/48/51
f 39/35/52 56/56/52 40/49/52
f 47/48/53 64/57/53 48/50/53
f 40/49/54 57/58/54 41/51/54
f 48/50/55 65/59/55 49/21/55
f 41/51/56 58/60/56 42/38/56
f 35/40/57 50/61/57 51/62/57
f 49/21/58 50/61/58 34/39/58
f 43/41/59 58/60/59 59/63/59
f 36/42/60 51/62/60 52/64/60
f 44/43/61 59/63/61 60/65/61
f 37/44/62 52/64/62 53/66/62
f 45/45/63 60/65/63 61/67/63
f 37/44/64 54/36/64 38/46/64
f 46/47/65 61/67/65 62/68/65
f 81/69/66 96/70/66 97/71/66
f 52/72/67 69/73/67 53/74/67
f 60/54/68 77/75/68 61/76/68
f 53/77/69 70/78/69 54/79/69
f 61/76/70 78/80/70 62/81/70
f 54/82/71 71/83/71 55/84/71
f 62/85/72 79/86/72 63/87/72
f 55/88/73 72/89/73 56/90/73
f 63/87/74 80/91/74 64/92/74
f 56/90/75 73/93/75 57/94/75
f 64/92/76 81/95/76 65/96/76
f 57/94/77 74/97/77 58/98/77
f 50/99/78 67/100/78 51/101/78
f 65/96/79 66/102/79 50/103/79
f 58/98/80 75/104/80 59/105/80
f 51/101/81 68/106/81 52/72/81
f 87/107/82 102/108/82 103/109/82
f 74/97/83 89/110/83 90/111/83
f 66/112/84 83/113/84 67/100/84
f 66/114/85 97/71/85 82/115/85
f 74/97/86 91/116/86 75/104/86
f 67/100/87 84/117/87 68/106/87
f 75/118/88 92/119/88 76/53/88
f 68/120/89 85/121/89 69/122/89
f 76/123/90 93/124/90 77/125/90
f 70/126/91 85/121/91 86/127/91
f 77/125/92 94/128/92 78/129/92
f 70/126/93 87/107/93 71/130/93
f 79/131/94 94/128/94 95/132/94
f 72/133/95 87/107/95 88/134/95
f 80/135/96 95/132/96 96/70/96
f 73/93/97 88/136/97 89/110/97
f 108/137/98 107/138/98 114/139/98
f 95/132/99 110/140/99 111/141/99
f 88/134/100 103/109/100 104/142/100
f 96/70/101 111/141/101 112/143/101
f 89/144/102 104/142/102 105/145/102
f 97/71/103 112/143/103 113/146/103
f 90/147/104 105/145/104 106/148/104
f 82/115/105 99/149/105 83/150/105
f 82/115/106 113/146/106 98/151/106
f 90/147/107 107/138/107 91/152/107
f 83/150/108 100/153/108 84/154/108
f 91/152/109 108/137/109 92/155/109
f 84/154/110 101/156/110 85/121/110
f 92/155/111 109/157/111 93/124/111
f 85/121/112 102/108/112 86/127/112
f 93/124/113 110/140/113 94/128/113
f 101/156/114 100/153/114 114/139/114
f 109/157/115 108/137/115 114/139/115
f 102/108/116 101/156/116 114/139/116
f 110/140/117 109/157/117 114/139/117
f 103/109/118 102/108/118 114/139/118
f 111/141/119 110/140/119 114/139/119
f 104/142/120 103/109/120 114/139/120
f 112/143/121 111/141/121 114/139/121
f 105/145/122 104/142/122 114/139/122
f 113/146/123 112/143/123 114/139/123
f 106/148/124 105/145/124 114/139/124
f 99/149/125 98/151/125 114/139/125
f 98/151/126 113/146/126 114/139/126
f 107/138/127 106/148/127 114/139/127
f 100/153/128 99/149/128 114/139/128
f 12/4/2 11/13/2 27/5/2
f 32/20/18 48/50/18 49/21/18
f 5/16/19 4/3/19 20/23/19
f 13/9/20 12/4/20 28/6/20
f 6/11/21 5/16/21 21/24/21
f 14/10/22 13/9/22 29/25/22
f 6/11/23 22/26/23 23/28/23
f 14/10/24 30/27/24 31/29/24
f 7/12/25 23/28/25 24/30/25
f 15/18/26 31/29/26 32/20/26
f 8/7/27 24/30/27 25/31/27
f 16/14/28 32/20/28 33/22/28
f 9/8/29 25/31/29 26/32/29
f 3/2/30 2/19/30 18/33/30
f 17/15/31 33/22/31 18/33/31
f 11/13/32 10/17/32 26/32/32
f 4/3/33 3/2/33 19/34/33
f 39/35/129 38/46/129 54/36/129
f 25/31/35 41/51/35 42/38/35
f 19/34/36 18/33/36 34/39/36
f 33/22/37 49/21/37 34/39/37
f 27/5/38 26/32/38 42/38/38
f 20/23/39 19/34/39 35/40/39
f 28/6/40 27/5/40 43/41/40
f 21/24/41 20/23/41 36/42/41
f 29/25/130 28/6/130 44/43/130
f 22/26/131 21/24/131 37/44/131
f 30/27/44 29/25/44 45/45/44
f 22/26/132 38/46/132 39/35/132
f 30/27/46 46/47/46 47/48/46
f 23/28/47 39/35/47 40/49/47
f 31/29/133 47/48/133 48/50/133
f 24/30/49 40/49/49 41/51/49
f 59/52/50 75/118/50 76/53/50
f 46/47/51 62/68/51 63/55/51
f 39/35/52 55/37/52 56/56/52
f 47/48/53 63/55/53 64/57/53
f 40/49/54 56/56/54 57/58/54
f 48/50/55 64/57/55 65/59/55
f 41/51/56 57/58/56 58/60/56
f 35/40/57 34/39/57 50/61/57
f 49/21/58 65/59/58 50/61/58
f 43/41/59 42/38/59 58/60/59
f 36/42/60 35/40/60 51/62/60
f 44/43/61 43/41/61 59/63/61
f 37/44/62 36/42/62 52/64/62
f 45/45/63 44/43/63 60/65/63
f 37/44/134 53/66/134 54/36/134
f 46/47/65 45/45/65 61/67/65
f 81/69/66 80/135/66 96/70/66
f 52/72/67 68/106/67 69/73/67
f 60/54/68 76/53/68 77/75/68
f 53/77/69 69/158/69 70/78/69
f 61/76/70 77/75/70 78/80/70
f 54/82/71 70/159/71 71/83/71
f 62/85/72 78/160/72 79/86/72
f 55/88/73 71/161/73 72/89/73
f 63/87/74 79/86/74 80/91/74
f 56/90/75 72/89/75 73/93/75
f 64/92/76 80/91/76 81/95/76
f 57/94/77 73/93/77 74/97/77
f 50/99/78 66/112/78 67/100/78
f 65/96/79 81/95/79 66/102/79
f 58/98/80 74/97/80 75/104/80
f 51/101/81 67/100/81 68/106/81
f 87/107/135 86/127/135 102/108/135
f 74/97/83 73/93/83 89/110/83
f 66/112/84 82/162/84 83/113/84
f 66/114/85 81/69/85 97/71/85
f 74/97/86 90/111/86 91/116/86
f 67/100/87 83/113/87 84/117/87
f 75/118/88 91/163/88 92/119/88
f 68/120/89 84/154/89 85/121/89
f 76/123/90 92/155/90 93/124/90
f 70/126/136 69/122/136 85/121/136
f 77/125/92 93/124/92 94/128/92
f 70/126/137 86/127/137 87/107/137
f 79/131/94 78/129/94 94/128/94
f 72/133/95 71/130/95 87/107/95
f 80/135/96 79/131/96 95/132/96
f 73/93/97 72/89/97 88/136/97
f 95/132/99 94/128/99 110/140/99
f 88/134/100 87/107/100 103/109/100
f 96/70/101 95/132/101 111/141/101
f 89/144/102 88/134/102 104/142/102
f 97/71/103 96/70/103 112/143/103
f 90/147/104 89/144/104 105/145/104
f 82/115/105 98/151/105 99/149/105
f 82/115/106 97/71/106 113/146/106
f 90/147/107 106/148/107 107/138/107
f 83/150/108 99/149/108 100/153/108
f 91/152/109 107/138/109 108/137/109
f 84/154/110 100/153/110 101/156/110
f 92/155/111 108/137/111 109/157/111
f 85/121/138 101/156/138 102/108/138
f 93/124/113 109/157/113 110/140/113
